<svg version="1.2" xmlns="http://www.w3.org/2000/svg" viewBox="0 0 115 138" width="115" height="138">
	<title>initcrew inverted no bg</title>
	<style>
		.s0 { fill: #ffffff } 
		.s1 { fill: #e11833 } 
	</style>
	<g id="Layer 1">
		<g id="&lt;Group&gt;">
			<path id="&lt;Path&gt;" class="s0" d="m116.3 67.9c-14.2-8.2-28-16.2-42.5-24.6 0 5.9-0.1 11.3 0.1 16.7 0 0.8 1.5 1.7 2.5 2.3 12.4 7 24.9 14.1 37.5 21 2.1 1.2 2.9 2.6 2.7 4.9-0.2 4.6 1.2 10-0.8 13.5-1.9 3.4-7.3 4.8-11 7.3-1.9 1.2-3.4 1.1-5.3-0.1q-26.8-15.6-53.6-31c-2-1.1-2.8-2.2-2.7-4.5q0.1-31.5 0-63.1c-0.1-2.2 0.6-3.5 2.6-4.5 3.9-1.9 7.7-5.7 11.6-5.7 3.8 0 7.7 3.7 11.4 5.8 15.1 8.7 30.1 17.4 45.2 26 1.9 1.1 2.7 2.4 2.7 4.6-0.2 9.4-0.1 18.7-0.1 28.1 0 0.9-0.2 1.8-0.3 3.3z"/>
			<path id="&lt;Path&gt;" class="s0" d="m27.7 67.5c0 4.8 0.3 8.9-0.1 13-0.3 3.6 1.2 5.3 4.2 7 18.3 10.1 36.5 20.4 55.1 30.9-0.9 0.7-1.6 1.3-2.3 1.7-8.3 5-16.5 9.8-24.7 14.9-1.8 1.1-3.1 1.2-4.9 0.1-18.2-10.6-36.4-21.1-54.5-31.8-1.2-0.8-2.3-2.8-2.4-4.2-0.2-4.9-1.5-10.7 0.6-14.3 2.1-3.7 7.8-5.3 12-7.7 5.4-3.2 10.9-6.2 17-9.6z"/>
			<path id="&lt;Path&gt;" class="s1" d="m27.7 16.3c0 11.7 0 22.6-0.1 33.5 0 0.6-0.5 1.4-1 1.7-9.3 5.2-18.6 10.3-28.6 15.9 0-5.7 0-10.6 0-15.5 0-5.4-0.1-10.7 0.1-16.1 0-1.2 0.7-3 1.6-3.5 9-5.3 18.1-10.4 28-16z"/>
		</g>
	</g>
</svg>